<svg id="Layer_1" data-name="Layer 1" xmlns="http://www.w3.org/2000/svg" viewBox="0 0 280 300"><defs><style>.cls-1,.cls-2,.cls-3{fill:#231f20;}.cls-1{fill-rule:evenodd;}.cls-2{stroke:#1b1918;stroke-width:0.16px;}</style></defs><title>Balmain Logo</title><path class="cls-1" d="M90.63,179.51l.36-.94.35-.95,2.14-5.57.44.86,2.52,6.6Zm5.22-14.81H91.46l-4.57,11.55L84.61,182l-1.14,2.9-1.13,3h5l.75-2.1.8-2.17H98.1l1.66,4.27h5l-2.18-5.75-3.38-8.73L98.63,172Zm0,0"/><path class="cls-2" d="M90.63,179.51l.36-.94.35-.95,2.14-5.57.44.86,2.52,6.6Zm5.22-14.81H91.46l-4.57,11.55L84.61,182l-1.14,2.9-1.13,3h5l.75-2.1.8-2.17H98.1l1.66,4.27h5l-2.18-5.75-3.38-8.73L98.63,172Zm0,0"/><path class="cls-1" d="M153.93,164.7h-6.52l-2.49,4.63-3.08,5.8-.87-1.27-5.06-9.16h-6.28v23.35h4.74V172.4l.19.28.17.31,5.45,9.61h3.2L149,172.4v15.65h5Zm0,0"/><path class="cls-2" d="M153.93,164.7h-6.52l-2.49,4.63-3.08,5.8-.87-1.27-5.06-9.16h-6.28v23.35h4.74V172.4l.19.28.17.31,5.45,9.61h3.2L149,172.4v15.65h5Zm0,0"/><path class="cls-1" d="M220.18,187.93V164.7h-4.5v14.81l-7.45-9.26-4.4-5.55h-4.74v23.23h4.5v-16l7.14,9,.79,1,4.75,6Zm0,0"/><path class="cls-2" d="M220.18,187.93V164.7h-4.5v14.81l-7.45-9.26-4.4-5.55h-4.74v23.23h4.5v-16l7.14,9,.79,1,4.75,6Zm0,0"/><path class="cls-1" d="M64.32,178h6.4a2.85,2.85,0,1,1-.12,5.69H64.32Zm0-9c3.49,0,7.35-.67,7.35,2.6,0,2.83-4.68,2.25-7.35,2.25Zm-4.5,19h8.89c3.74,0,6.22-.09,8.24-2.78a4.6,4.6,0,0,0,.81-1.44c.8-2.34.83-5.14-.9-7A5.9,5.9,0,0,0,74,175a3.08,3.08,0,0,0,.52-.5c1.92-2.13,2.46-7.23-2.09-9a13.43,13.43,0,0,0-5-.71h-7.6Zm0,0"/><path class="cls-2" d="M64.32,178h6.4a2.85,2.85,0,1,1-.12,5.69H64.32Zm0-9c3.49,0,7.35-.67,7.35,2.6,0,2.83-4.68,2.25-7.35,2.25Zm-4.5,19h8.89c3.74,0,6.22-.09,8.24-2.78a4.71,4.71,0,0,0,.81-1.44c.8-2.34.83-5.14-.9-7A5.9,5.9,0,0,0,74,175a3.08,3.08,0,0,0,.52-.5c1.92-2.13,2.46-7.23-2.09-9a13.43,13.43,0,0,0-5-.71h-7.6Zm0,0"/><path class="cls-1" d="M167.32,179.51l.36-.94.35-.95,2.14-5.57.43.86,2.53,6.6Zm5.22-14.81h-4.39l-4.57,11.55L161.29,182l-1.13,2.9-1.14,3h5l.75-2.1.79-2.17h9.25l1.66,4.27h5l-2.17-5.75-3.38-8.73-.56-1.45Zm0,0"/><path class="cls-2" d="M167.32,179.51l.36-.94.35-.95,2.14-5.57.43.86,2.53,6.6Zm5.22-14.81h-4.39l-4.57,11.55L161.29,182l-1.13,2.9-1.14,3h5l.75-2.1.79-2.17h9.25l1.66,4.27h5l-2.17-5.75-3.38-8.73-.56-1.45Zm0,0"/><path class="cls-1" d="M115.17,164.7h-4.62v23.23H123.7v-4.39h-8.53Zm0,0"/><path class="cls-2" d="M115.17,164.7h-4.62v23.23H123.7v-4.39h-8.53Zm0,0"/><rect class="cls-3" x="186.76" y="164.7" width="4.62" height="23.23"/><rect class="cls-2" x="186.76" y="164.7" width="4.62" height="23.23"/><path class="cls-1" d="M110.91,209.78V198.17h4a15.56,15.56,0,0,1,3,.17,3.29,3.29,0,0,1,1.8,1.14,3.44,3.44,0,0,1,.72,2.26,3.58,3.58,0,0,1-.42,1.8,3.22,3.22,0,0,1-1,1.14,3.79,3.79,0,0,1-1.31.55,15.4,15.4,0,0,1-2.61.17h-1.64v4.38Zm2.53-9.65v3.31h1.37a6.61,6.61,0,0,0,2-.19,1.65,1.65,0,0,0,.79-.57,1.56,1.56,0,0,0,.28-.91,1.41,1.41,0,0,0-.4-1,1.76,1.76,0,0,0-1-.52,13.35,13.35,0,0,0-1.81-.08Zm21.14,9.65h-2.72l-1.08-2.65h-5l-1,2.65h-2.68l4.85-11.61h2.68ZM130,205.17l-1.74-4.3-1.69,4.3Zm8,4.61V198.17h5.32a9.75,9.75,0,0,1,2.91.31,2.81,2.81,0,0,1,1.45,1.11,3.14,3.14,0,0,1,.55,1.83,3,3,0,0,1-.82,2.16,4,4,0,0,1-2.47,1.07,5.81,5.81,0,0,1,1.35,1,13.42,13.42,0,0,1,1.43,1.88l1.52,2.27h-3l-1.8-2.54a16.77,16.77,0,0,0-1.34-1.7,2,2,0,0,0-.76-.48,4.4,4.4,0,0,0-1.28-.13h-.51v4.85Zm2.53-6.7h1.87a10.88,10.88,0,0,0,2.27-.14,1.42,1.42,0,0,0,.7-.49,1.48,1.48,0,0,0,.26-.88,1.33,1.33,0,0,0-.34-.95,1.55,1.55,0,0,0-.95-.45c-.2,0-.82,0-1.84,0h-2Zm12.06,6.7V198.17h2.53v11.61Zm6.35-3.76,2.46-.23a2.68,2.68,0,0,0,.89,1.68,2.85,2.85,0,0,0,1.83.54,2.94,2.94,0,0,0,1.83-.48,1.39,1.39,0,0,0,.61-1.12,1,1,0,0,0-.26-.7,2.07,2.07,0,0,0-.9-.5c-.29-.1-1-.26-2-.51a7.16,7.16,0,0,1-2.84-1.15,3,3,0,0,1-1.14-2.35,2.9,2.9,0,0,1,.53-1.66,3.32,3.32,0,0,1,1.56-1.18A6.61,6.61,0,0,1,164,198a5.5,5.5,0,0,1,3.53,1,3.36,3.36,0,0,1,1.25,2.59l-2.53.08a2,2,0,0,0-.69-1.29,2.61,2.61,0,0,0-1.59-.4,3,3,0,0,0-1.71.42.85.85,0,0,0-.4.73.87.87,0,0,0,.38.7,6.91,6.91,0,0,0,2.31.78,12.7,12.7,0,0,1,2.72.84,3.54,3.54,0,0,1,1.38,1.18,3.29,3.29,0,0,1,.49,1.85,3.21,3.21,0,0,1-.59,1.87,3.59,3.59,0,0,1-1.69,1.3,7.66,7.66,0,0,1-2.72.42,5.7,5.7,0,0,1-3.64-1,4.24,4.24,0,0,1-1.51-2.95Zm0,0"/><path class="cls-1" d="M140,90a31.79,31.79,0,1,1-22.49,9.31A31.74,31.74,0,0,1,140,90ZM159.86,102a28.1,28.1,0,1,0,8.22,19.86A28,28,0,0,0,159.86,102Zm0,0"/><path class="cls-2" d="M140,90a31.79,31.79,0,1,1-22.49,9.31A31.74,31.74,0,0,1,140,90ZM159.86,102a28.1,28.1,0,1,0,8.22,19.86A28,28,0,0,0,159.86,102Zm0,0"/><path class="cls-1" d="M139,109.44v9.15h5.89a6.51,6.51,0,0,0,4.22-1.47,3.88,3.88,0,0,0,0-6.2,6.51,6.51,0,0,0-4.22-1.48Zm13.63,11.16a10.79,10.79,0,0,1,1.17.92,9.69,9.69,0,0,1,0,14.69,11.61,11.61,0,0,1-7.77,2.93H122.78v-5h4.08V109.44h-4.08v-5h22.15a11.46,11.46,0,0,1,7.43,2.68,8.76,8.76,0,0,1,.31,13.44Zm-20.85-11.16v24.74h2.26V109.44ZM139,123.55v10.63h7a6.65,6.65,0,0,0,4.46-1.65,4.76,4.76,0,0,0,0-7.33,6.69,6.69,0,0,0-4.46-1.65Zm0,0"/></svg>