<svg xmlns="http://www.w3.org/2000/svg" width="500" height="145"><g fill="#FFF"><path d="M43.877 31.809c4.004-3.48 6.173-8.284 6.173-13.585C50.05 7.455 42.21.33 27.861.33H0v71.405h34.2c14.349 0 23.19-9.278 23.19-21.703.168-9.112-4.837-15.408-13.513-18.224m-30.03-3.48V13.089h13.18c6.84 0 10.177 2.816 10.177 7.62 0 4.805-3.17 7.622-10.177 7.622h-13.18zm29.697 21.538c0 5.799-3.838 9.112-11.178 9.112H13.847V40.755h18.519c7.34 0 11.178 3.314 11.178 9.112m81.08 21.869h15.182L111.946.33h-13.18l-28.53 71.405h15.016l5.172-13.254h29.029l5.172 13.254zm-29.028-25.68 9.51-24.187 9.509 24.188h-19.02zM172.339.167h-13.847v71.57h40.707V58.648h-26.86V.166zm78.579 55.168h9.342l17.851-32.803v49.536h15.015V0h-19.52l-18.184 32.969L236.737 0h-18.852v72.233h14.514V23.028l18.519 32.306zm112.946 16.402h15.182L351.185.33h-13.18l-28.529 71.405h15.015l5.172-13.254h29.029l5.172 13.254zm-29.03-25.68 9.51-24.187 9.51 24.188h-19.02zm61.062 25.68h14.18V.33h-14.18v71.405zM486.153.33v46.39L448.949.331h-14.515v71.405h13.848V21.869l39.873 49.867H500V.33h-13.847zM173.412 131.423h-7.665v13.042h-7.49V108.35h15.33c7.838 0 12.193 4.347 12.193 11.704s-4.355 11.37-12.368 11.37zm-.348-6.688c3.135 0 4.877-1.672 4.877-4.849 0-3.01-1.742-4.849-4.877-4.849h-7.143v9.698h7.143zm44.826 13.905h-13.287l-2.215 5.825h-7.434l13.287-36.116h6.01l12.813 36.116h-7.276l-1.898-5.825zm-2.215-6.49-4.27-11.984-4.271 11.983h8.541zm49.991-1.499 7.27 13.814h-8.482l-6.924-12.982h-4.674v12.982h-7.443V108.35h15.233c7.79 0 12.117 4.327 12.117 11.65 0 5.493-2.597 9.154-7.097 10.652zm-5.54-5.991c3.116 0 4.847-1.665 4.847-4.827 0-2.996-1.904-4.827-5.02-4.827h-7.097v9.654h7.27zm26.571-16.311h9.175v36.116h-9.175zm39.575 14.154 7.003 1.952c5.537 1.627 8.468 4.718 8.468 9.598 0 6.508-5.048 10.412-13.191 10.412-9.12 0-13.518-3.904-14.332-12.527h7.817c.815 4.393 2.606 6.02 6.84 6.02 3.42 0 5.538-1.302 5.538-3.58 0-1.951-1.466-3.09-4.235-3.741l-7.003-2.115c-5.7-1.627-8.305-4.555-8.305-9.761 0-6.182 5.374-10.412 13.028-10.412 8.469 0 13.843 4.88 13.843 12.69h-7.98c.163-4.068-2.117-6.183-6.514-6.183-3.42 0-5.537 1.302-5.537 3.58.162 2.114 1.628 3.253 4.56 4.067z"/></g></svg>